# xmcd CD database file
#
# Track frame offsets:
#	150
#	14212
#	28452
#	42982
#	57085
#	70177
#	84845
#	99037
#	112495
#	127082
#	141032
#	154707
#	169035
#	184250
#	198562
#	213080
#	231500
#	251327
#	265242
#	278747
#	293455
#	306977
#	321615
#
# Disc length: 4469 seconds
#
# Revision: 0
# Processed by: cddbd v1.5.2PL0 Copyright (c) Steve Scherf et al.
# Submitted via: CDex 1.79
#
DISCID=5b117317
DTITLE=Duke Ellington - Vintage Hit Singles Collection Disc One
DYEAR=2000
DGENRE=Jazz
TTITLE0=East St. Louis Toodle-oo
TTITLE1=Black and Tan Fantasy
TTITLE2=Creole Love Call
TTITLE3=Doin' the New Low Down
TTITLE4=Diga Diga Doo
TTITLE5=The Mooche
TTITLE6=Three Little Words
TTITLE7=Ring Dem Bells
TTITLE8=Blue Again
TTITLE9=Mood Indigo
TTITLE10=Rockin' In Rhythm
TTITLE11=Creole Rhapsody Part 1
TTITLE12=Creole Rhapsody Part 2
TTITLE13=Limehouse Blues
TTITLE14=It Don't Mean a Thing (If It Ain't Got That Swing)
TTITLE15=Creole Rhapsody Part1 (New Version)
TTITLE16=Creole Rhapsody Part 2 (New Version)
TTITLE17=Rose Room
TTITLE18=Moon Over Dixie
TTITLE19=Blue Ramble
TTITLE20=Drop Me Off At Harlem
TTITLE21=Sophisticated Lady
TTITLE22=Stormy Weather
EXTD=YEAR: 2000
EXTT0=
EXTT1=
EXTT2=
EXTT3=
EXTT4=
EXTT5=
EXTT6=
EXTT7=
EXTT8=
EXTT9=
EXTT10=
EXTT11=
EXTT12=
EXTT13=
EXTT14=
EXTT15=
EXTT16=
EXTT17=
EXTT18=
EXTT19=
EXTT20=
EXTT21=
EXTT22=
PLAYORDER=
